# xmcd
#
# Track frame offsets: 
#        183
#        39508
#        51628
#        63508
#        74688
#        88020
#        100108
#        113613
#        123213
#        131928
#        140330
#        150183
#        173470
#        198088
#        212433
#        225255
#        240045
#        254140
#        271533
#        280650
#        296588
#        312998
#        329958
#
# Disc length: 4503 seconds
#
# Revision: 6
# Processed by: cddbd v1.5.2PL0 Copyright (c) Steve Scherf et al.
# Submitted via: ExactAudioCopy v1.0b1
#
DISCID=46119517
DTITLE=Musiqua Antiqua Koeln - Reinhard Goebel - Telemann - Tafelmusik
DYEAR=1989
DGENRE=Classical
TTITLE0=Telemann, Georg Philipp - Ouverture - Suite b-dur - I - 1. Ouv
TTITLE0=erture
TTITLE1=Telemann, Georg Philipp - Ouverture - Suite b-dur - I - 2. Ber
TTITLE1=gerie
TTITLE2=Telemann, Georg Philipp - Ouverture - Suite b-dur - I - 3. All
TTITLE2=égresse
TTITLE3=Telemann, Georg Philipp - Ouverture - Suite b-dur - I - 4. Pos
TTITLE3=tillons
TTITLE4=Telemann, Georg Philipp - Ouverture - Suite b-dur - I - 5. Fla
TTITLE4=terie
TTITLE5=Telemann, Georg Philipp - Ouverture - Suite b-dur - I - 6. Bad
TTITLE5=inage
TTITLE6=Telemann, Georg Philipp - Ouverture - Suite b-dur - I - Menuet
TTITLE7=Telemann, Georg Philipp - Quatuor e-moll - II - 1.  Adagio
TTITLE8=Telemann, Georg Philipp - Quatuor e-moll - II - 2. Allegro
TTITLE9=Telemann, Georg Philipp - Quatuor e-moll - II - 3. Dolce
TTITLE10=Telemann, Georg Philipp - Quatuor e-moll - II - 4. Allegro
TTITLE11=Telemann, Georg Philipp - Concert f-dur - III - 1. Allegro
TTITLE12=Telemann, Georg Philipp - Concert f-dur - III - 2. Largo
TTITLE13=Telemann, Georg Philipp - Concert f-dur - III - 3. Vivace
TTITLE14=Telemann, Georg Philipp - Trio es-dur - IV - 1. Affettuoso
TTITLE15=Telemann, Georg Philipp - Trio es-dur - IV - 2. Vivace
TTITLE16=Telemann, Georg Philipp - Trio es-dur - IV - 3. Grave
TTITLE17=Telemann, Georg Philipp - Trio es-dur - IV - 4. Allegro
TTITLE18=Telemann, Georg Philipp - Solo a-dur - V - 1. Andante
TTITLE19=Telemann, Georg Philipp - Solo a-dur - V - 2. Vivace
TTITLE20=Telemann, Georg Philipp - Solo a-dur - V - 3. Cantabile
TTITLE21=Telemann, Georg Philipp - Solo a-dur - V - Allegro - Adagio -
TTITLE21=Allegro - Adagio
TTITLE22=Telemann, Georg Philipp - Conclusion b-dur - VI - 1. Furioso
EXTD=Telemann, Georg Philipp - Tafelmusik - Musiqua Antiqua Koeln - Re
EXTD=inhard Goebel
EXTT0=
EXTT1=
EXTT2=
EXTT3=
EXTT4=
EXTT5=
EXTT6=
EXTT7=
EXTT8=
EXTT9=
EXTT10=
EXTT11=
EXTT12=
EXTT13=
EXTT14=
EXTT15=
EXTT16=
EXTT17=
EXTT18=
EXTT19=
EXTT20=
EXTT21=
EXTT22=
PLAYORDER=
